<?xml version="1.0" encoding="utf-8" ?>
<svg xmlns="http://www.w3.org/2000/svg" xmlns:xlink="http://www.w3.org/1999/xlink" width="1024" height="1024">
	<path fill="#FB771A" d="M0 0L1024 0L1024 1024L0 1024L0 0ZM690.398 389.799L689.084 389.349C687.662 385.881 688.897 367.945 688.897 362.779L688.688 240.715C688.633 230.604 689.797 198.627 687.396 191.561C685.66 186.453 680.707 181.783 675.829 179.699C673.189 178.571 670.674 178.171 667.828 178.056C650.674 177.364 633.307 177.929 616.121 177.94L523.415 177.897L414.063 178.034C395.206 178.047 376.169 177.493 357.331 178.068C354.245 178.162 351.295 178.347 348.412 179.565C343.286 181.731 338.939 186.327 336.925 191.499C334.002 199.005 335.531 311.802 335.521 327.885C335.508 348.66 334.966 369.428 335.02 390.207C328.309 390.145 321.144 389.582 314.488 390.434C309.419 390.395 305.605 391.335 301.835 394.949C299.332 397.35 297.255 400.758 296.663 404.21C295.642 410.167 296.31 417.194 296.317 423.268L296.383 461.094L296.172 585.671L296.202 683.233L296.221 712.951C296.233 718.394 295.864 724.131 296.497 729.531C296.964 733.512 298.149 737.761 301.125 740.616C309.065 748.233 324.584 745.354 334.581 746.172C337.672 748.239 346.76 761.87 350.471 766.123C364.477 782.17 379.546 796.952 397.097 809.101Q399.126 810.503 401.189 811.856Q403.251 813.208 405.346 814.509Q407.442 815.81 409.568 817.06Q411.694 818.31 413.851 819.507Q416.007 820.704 418.192 821.848Q420.377 822.992 422.59 824.082Q424.802 825.172 427.041 826.207Q429.279 827.243 431.542 828.223Q433.806 829.204 436.092 830.128Q438.379 831.053 440.687 831.921Q442.996 832.79 445.325 833.601Q447.654 834.413 450.002 835.167Q452.35 835.921 454.716 836.618Q457.082 837.314 459.465 837.952Q461.847 838.591 464.244 839.17Q466.642 839.75 469.052 840.271Q471.463 840.792 473.886 841.253Q476.309 841.715 478.742 842.117Q481.176 842.519 483.618 842.861Q486.061 843.204 488.511 843.486Q490.961 843.769 493.417 843.991Q495.874 844.213 498.335 844.376Q500.796 844.538 503.26 844.639Q505.725 844.741 508.191 844.782Q510.657 844.824 513.123 844.805Q515.589 844.786 518.054 844.706Q520.52 844.626 522.982 844.487Q525.444 844.347 527.903 844.147Q530.361 843.946 532.814 843.686Q535.266 843.426 537.712 843.105Q540.157 842.785 542.594 842.405Q545.031 842.025 547.458 841.585C594.517 832.955 637.598 807.179 669.044 771.303C676.472 762.828 682.871 753.727 689.277 744.473C691.584 744.447 693.86 744.265 696.157 744.07C699.394 744.094 702.659 744.159 705.893 743.999C712.702 743.66 718.935 741.869 723.574 736.531C727.234 732.318 727.983 728.302 728.372 722.936C728.877 715.972 728.589 708.812 728.592 701.828L728.518 662.002L728.408 543.988L728.437 453.303L728.53 423.618C728.545 418.131 728.863 412.429 728.349 406.972C727.912 402.343 725.267 396.858 721.559 394.034C713.872 388.179 699.628 388.749 690.398 389.799Z"/>
	<path fill="#F8EED3" d="M335.02 390.207C334.966 369.428 335.508 348.66 335.521 327.885C335.531 311.802 334.002 199.005 336.925 191.499C338.939 186.327 343.286 181.731 348.412 179.565C351.295 178.347 354.245 178.162 357.331 178.068C376.169 177.493 395.206 178.047 414.063 178.034L523.415 177.897L616.121 177.94C633.307 177.929 650.674 177.364 667.828 178.056C670.674 178.171 673.189 178.571 675.829 179.699C680.707 181.783 685.66 186.453 687.396 191.561C689.797 198.627 688.633 230.604 688.688 240.715L688.897 362.779C688.897 367.945 687.662 385.881 689.084 389.349L690.398 389.799L688.89 390.478C687.928 393.542 688.84 428.797 688.816 435.575L689.064 604.567L689.154 649.926C689.179 659.132 689.44 668.513 688.911 677.698C677.181 670.962 664.832 665.089 652.832 658.838L580.666 621.166L530.343 594.931C524.846 592.121 519.669 588.329 513.92 586.1C512.922 585.713 511.446 584.99 510.369 585.288C505.537 586.626 500.173 590.533 495.718 592.921L465.777 608.749Q415.959 635.099 365.772 660.736C355.491 665.906 345.527 672.079 335.04 676.758C334.048 664.788 334.866 652.151 334.857 640.09L334.898 563.991Q334.273 500.532 334.747 437.075C334.835 421.598 334.355 406.152 334.967 390.677C328.192 390.689 321.234 391.005 314.488 390.434C321.144 389.582 328.309 390.145 335.02 390.207ZM605.021 274.61C599.498 275.645 594.894 277.997 591.554 282.672Q591.267 283.067 591.001 283.477Q590.735 283.886 590.49 284.309Q590.245 284.732 590.023 285.167Q589.801 285.602 589.602 286.048Q589.402 286.494 589.226 286.949Q589.051 287.405 588.899 287.869Q588.747 288.333 588.619 288.805Q588.491 289.276 588.388 289.754Q588.285 290.231 588.207 290.714Q588.129 291.196 588.077 291.681Q588.024 292.167 587.996 292.655Q587.969 293.142 587.966 293.631Q587.964 294.119 587.988 294.607Q588.011 295.095 588.059 295.581Q588.108 296.067 588.182 296.55Q588.255 297.033 588.354 297.511Q588.45 297.999 588.57 298.481Q588.69 298.964 588.834 299.44Q588.978 299.916 589.145 300.384Q589.312 300.853 589.503 301.312Q589.693 301.771 589.906 302.221Q590.119 302.67 590.354 303.108Q590.589 303.546 590.845 303.972Q591.102 304.398 591.379 304.811Q591.657 305.224 591.954 305.622Q592.252 306.021 592.569 306.404Q592.886 306.787 593.221 307.154Q593.557 307.521 593.91 307.871Q594.264 308.22 594.634 308.552Q595.005 308.884 595.391 309.197Q595.777 309.51 596.179 309.803Q596.58 310.097 596.996 310.37C601.055 313.003 605.42 313.783 610.187 313.487C615.859 312.11 620.632 309.64 623.841 304.547Q624.358 303.71 624.791 302.827Q625.224 301.944 625.569 301.024Q625.914 300.103 626.168 299.153Q626.421 298.203 626.582 297.232Q626.742 296.262 626.807 295.281Q626.873 294.3 626.842 293.317Q626.812 292.334 626.686 291.359Q626.56 290.383 626.34 289.425Q626.228 288.951 626.093 288.483Q625.957 288.015 625.798 287.554Q625.639 287.094 625.456 286.642Q625.273 286.19 625.068 285.749Q624.863 285.307 624.635 284.876Q624.407 284.445 624.158 284.027Q623.909 283.608 623.639 283.203Q623.368 282.797 623.078 282.406Q622.787 282.015 622.477 281.639Q622.167 281.264 621.838 280.904Q621.509 280.545 621.162 280.203Q620.815 279.86 620.451 279.536Q620.087 279.212 619.708 278.907Q619.328 278.602 618.933 278.317Q618.538 278.031 618.129 277.766Q617.72 277.502 617.298 277.258C613.566 275.136 609.272 274.392 605.021 274.61ZM415.003 275.133C409.206 276.072 404.195 278.548 400.725 283.437Q400.439 283.837 400.173 284.251Q399.908 284.665 399.665 285.093Q399.421 285.52 399.2 285.959Q398.979 286.398 398.781 286.849Q398.582 287.299 398.408 287.758Q398.233 288.218 398.082 288.686Q397.932 289.155 397.805 289.63Q397.679 290.105 397.577 290.586Q397.476 291.068 397.399 291.553Q397.323 292.039 397.271 292.528Q397.22 293.018 397.194 293.509Q397.167 294 397.167 294.492Q397.166 294.983 397.191 295.475Q397.215 295.966 397.265 296.455Q397.315 296.944 397.391 297.43Q397.466 297.917 397.566 298.398C398.662 303.633 402.004 308.068 406.582 310.786C410.724 313.246 414.957 313.755 419.663 313.643C425.772 311.853 430.479 309.181 433.767 303.462C436.362 298.95 437.132 293.735 435.547 288.744Q435.399 288.276 435.228 287.817Q435.057 287.357 434.863 286.906Q434.668 286.456 434.451 286.016Q434.234 285.576 433.995 285.148Q433.756 284.72 433.495 284.304Q433.235 283.889 432.953 283.487Q432.672 283.085 432.37 282.698Q432.069 282.311 431.748 281.94Q431.427 281.569 431.088 281.215Q430.748 280.861 430.391 280.524Q430.034 280.188 429.661 279.87Q429.287 279.552 428.898 279.253Q428.508 278.955 428.104 278.677Q427.7 278.399 427.283 278.141Q426.865 277.884 426.435 277.648Q426.005 277.413 425.563 277.199Q424.341 276.595 423.05 276.158Q421.759 275.721 420.421 275.459Q419.084 275.197 417.723 275.115Q416.362 275.034 415.003 275.133ZM509.776 350.215C499.944 350.86 487.521 351.769 480.458 359.618C477.291 363.137 475.51 367.664 475.886 372.418C476.839 384.452 494.833 397.115 503.441 404.781C505.825 406.904 508.032 410.073 510.443 411.905C511.058 412.373 511.214 412.392 511.843 412.632C512.342 412.342 512.925 412.048 513.395 411.717C521.35 404.02 539.447 389.836 544.697 381.758C546.842 378.458 548.24 374.518 548.359 370.566C548.493 366.079 546.863 362.179 543.773 358.954C536.571 351.437 523.143 350.153 513.33 350.149C512.15 350.148 510.954 350.13 509.776 350.215ZM348.355 354.337L348.197 362.733C369.185 366.626 390.227 370.01 411.271 373.568C424.112 375.739 437.015 378.66 450.018 379.627L450.098 371.153C428.945 368.59 408.146 364.495 387.128 361.106C375.686 359.261 358.745 357.649 348.355 354.337ZM673.034 356.7C640.202 361.045 607.664 366.972 574.907 371.696C574.863 373.99 574.391 377.154 575.448 379.194C576.353 379.51 576.839 379.467 577.777 379.298C600.551 375.299 623.504 372.068 646.355 368.524C656.224 366.993 666.363 365.858 676.111 363.746C676.188 361.57 676.633 358.833 675.637 356.855C674.607 356.386 674.128 356.474 673.034 356.7ZM574.894 388.576C574.802 391.181 574.857 393.708 575.01 396.307C608.734 396.737 642.437 397.932 676.168 398.151L676.223 390.495L574.894 388.576ZM445.485 389.266Q396.983 389.72 348.478 389.643C348.402 391.932 347.831 395.234 349.111 397.172C350.109 397.523 350.827 397.482 351.875 397.407L413.848 397.314C425.79 397.33 437.923 397.763 449.848 397.068C449.964 394.815 450.634 391.475 449.339 389.569C448.043 388.902 446.878 389.135 445.485 389.266ZM467.045 439.121L467.435 578.182L523.891 578.168C534.727 578.163 545.69 577.831 556.513 578.341L556.452 439.158Q528.566 439.391 500.679 439.307C489.489 439.309 478.22 439.595 467.045 439.121ZM583.514 439.14L583.413 600.015L644.357 600.017C654.6 600.049 665.274 600.727 675.476 600.087L675.841 599.465L676.072 599.734L676.307 599.355L676.075 438.988Q629.795 439.544 583.514 439.14ZM348.293 439.481L348.457 600.025L412.053 600.059C419.617 600.074 432.502 601.038 439.51 599.894Q439.87 548.672 439.555 497.45C439.466 478.185 438.613 458.687 439.353 439.456L348.293 439.481Z"/>
	<path fill="#0A8B5B" d="M610.187 313.487C605.42 313.783 601.055 313.003 596.996 310.37Q596.58 310.097 596.179 309.803Q595.777 309.51 595.391 309.197Q595.005 308.884 594.634 308.552Q594.264 308.22 593.91 307.871Q593.557 307.521 593.221 307.154Q592.886 306.787 592.569 306.404Q592.252 306.021 591.954 305.622Q591.657 305.224 591.379 304.811Q591.102 304.398 590.845 303.972Q590.589 303.546 590.354 303.108Q590.119 302.67 589.906 302.221Q589.693 301.771 589.503 301.312Q589.312 300.853 589.145 300.384Q588.978 299.916 588.834 299.44Q588.69 298.964 588.57 298.481Q588.45 297.999 588.354 297.511Q588.255 297.033 588.182 296.55Q588.108 296.067 588.059 295.581Q588.011 295.095 587.987 294.607Q587.964 294.119 587.966 293.631Q587.969 293.142 587.996 292.654Q588.024 292.167 588.077 291.681Q588.129 291.196 588.207 290.714Q588.285 290.231 588.388 289.754Q588.491 289.276 588.619 288.805Q588.747 288.333 588.899 287.869Q589.051 287.405 589.227 286.949Q589.402 286.494 589.602 286.048Q589.801 285.602 590.023 285.167Q590.245 284.732 590.49 284.309Q590.735 283.886 591.001 283.477Q591.267 283.067 591.554 282.672C594.894 277.997 599.498 275.645 605.021 274.61C609.272 274.392 613.566 275.136 617.298 277.258Q617.72 277.502 618.129 277.766Q618.538 278.031 618.933 278.317Q619.328 278.602 619.708 278.907Q620.087 279.212 620.451 279.536Q620.815 279.86 621.162 280.203Q621.509 280.545 621.838 280.904Q622.167 281.264 622.477 281.639Q622.787 282.015 623.078 282.406Q623.368 282.797 623.639 283.203Q623.909 283.608 624.158 284.027Q624.407 284.445 624.635 284.876Q624.863 285.307 625.068 285.749Q625.273 286.19 625.456 286.642Q625.639 287.094 625.798 287.554Q625.957 288.015 626.093 288.483Q626.228 288.951 626.34 289.425Q626.56 290.383 626.686 291.359Q626.812 292.334 626.842 293.317Q626.873 294.3 626.807 295.281Q626.742 296.262 626.582 297.232Q626.421 298.203 626.168 299.153Q625.914 300.103 625.569 301.024Q625.224 301.944 624.791 302.827Q624.358 303.71 623.841 304.547C620.632 309.64 615.859 312.11 610.187 313.487Z"/>
	<path fill="#0A8B5B" d="M419.663 313.643C414.957 313.755 410.724 313.246 406.582 310.786C402.004 308.068 398.662 303.633 397.566 298.398Q397.466 297.917 397.391 297.43Q397.315 296.944 397.265 296.455Q397.215 295.966 397.191 295.475Q397.166 294.983 397.167 294.492Q397.167 294 397.194 293.509Q397.22 293.018 397.271 292.528Q397.323 292.039 397.399 291.553Q397.476 291.068 397.577 290.586Q397.679 290.105 397.805 289.63Q397.932 289.155 398.082 288.686Q398.233 288.218 398.408 287.758Q398.582 287.299 398.781 286.849Q398.979 286.398 399.2 285.959Q399.421 285.52 399.665 285.093Q399.908 284.665 400.173 284.251Q400.439 283.837 400.725 283.437C404.195 278.548 409.206 276.072 415.003 275.133Q416.362 275.034 417.723 275.115Q419.084 275.197 420.421 275.459Q421.759 275.721 423.05 276.158Q424.341 276.595 425.563 277.199Q426.005 277.413 426.435 277.648Q426.865 277.884 427.283 278.141Q427.7 278.399 428.104 278.677Q428.508 278.955 428.898 279.253Q429.287 279.552 429.661 279.87Q430.034 280.188 430.391 280.524Q430.748 280.861 431.088 281.215Q431.427 281.569 431.748 281.94Q432.069 282.311 432.37 282.698Q432.672 283.085 432.953 283.487Q433.235 283.889 433.495 284.304Q433.756 284.72 433.995 285.148Q434.234 285.576 434.451 286.016Q434.668 286.456 434.863 286.906Q435.057 287.357 435.228 287.816Q435.4 288.276 435.547 288.744C437.132 293.735 436.362 298.95 433.767 303.462C430.479 309.181 425.772 311.853 419.663 313.643Z"/>
	<path fill="#0A8B5B" d="M513.395 411.717C512.925 412.048 512.342 412.342 511.843 412.632C511.214 412.392 511.058 412.373 510.443 411.905C508.032 410.073 505.825 406.904 503.441 404.781C494.833 397.115 476.839 384.452 475.886 372.418C475.51 367.664 477.291 363.137 480.458 359.618C487.521 351.769 499.944 350.86 509.776 350.215C510.954 350.13 512.15 350.148 513.33 350.149C523.143 350.153 536.571 351.437 543.773 358.954C546.863 362.179 548.493 366.079 548.359 370.566C548.24 374.518 546.842 378.458 544.697 381.758C539.447 389.836 521.35 404.02 513.395 411.717Z"/>
	<path fill="#0A8B5B" d="M348.197 362.733L348.355 354.337C358.745 357.649 375.686 359.261 387.128 361.106C408.146 364.495 428.945 368.59 450.098 371.153L450.018 379.627C437.015 378.66 424.112 375.739 411.271 373.568C390.227 370.01 369.185 366.626 348.197 362.733Z"/>
	<path fill="#0A8B5B" d="M574.907 371.696C607.664 366.972 640.202 361.045 673.034 356.7C674.128 356.474 674.607 356.386 675.637 356.855C676.633 358.833 676.188 361.57 676.111 363.746C666.363 365.858 656.224 366.993 646.355 368.524C623.504 372.068 600.551 375.299 577.777 379.298C576.839 379.467 576.353 379.51 575.448 379.194C574.391 377.154 574.863 373.99 574.907 371.696Z"/>
	<path fill="#0A8B5B" d="M575.01 396.307C574.857 393.708 574.802 391.181 574.894 388.576L676.223 390.495L676.168 398.151C642.437 397.932 608.734 396.737 575.01 396.307Z"/>
	<path fill="#0A8B5B" d="M348.478 389.643Q396.983 389.721 445.485 389.266C446.878 389.135 448.043 388.902 449.339 389.569C450.634 391.475 449.964 394.815 449.848 397.068C437.923 397.763 425.79 397.33 413.848 397.314L351.875 397.407C350.827 397.482 350.109 397.523 349.111 397.172C347.831 395.234 348.402 391.932 348.478 389.643Z"/>
	<path fill="#F2F2DC" d="M690.398 389.799C699.628 388.749 713.872 388.179 721.559 394.034C725.267 396.858 727.912 402.343 728.349 406.972C728.863 412.429 728.545 418.131 728.53 423.618L728.437 453.303L728.408 543.988L728.518 662.002L728.592 701.828C728.589 708.812 728.877 715.972 728.372 722.936C727.983 728.302 727.234 732.318 723.574 736.531C718.935 741.869 712.702 743.66 705.893 743.999C702.659 744.159 699.394 744.094 696.157 744.07C693.787 743.762 691.351 743.893 688.963 743.91C689.516 725.901 689.259 707.701 688.95 689.686C688.755 685.703 688.884 681.686 688.911 677.698C689.44 668.513 689.179 659.132 689.154 649.926L689.064 604.567L688.816 435.575C688.84 428.797 687.928 393.542 688.89 390.478L690.398 389.799Z"/>
	<path fill="#F2F2DC" d="M334.581 746.172C324.584 745.354 309.065 748.233 301.125 740.616C298.149 737.761 296.964 733.512 296.497 729.531C295.864 724.131 296.233 718.394 296.221 712.951L296.202 683.233L296.172 585.671L296.383 461.094L296.317 423.268C296.31 417.194 295.642 410.167 296.663 404.21C297.255 400.758 299.332 397.35 301.835 394.949C305.605 391.335 309.419 390.395 314.488 390.434C321.234 391.005 328.192 390.689 334.967 390.677C334.355 406.152 334.835 421.598 334.747 437.075Q334.273 500.535 334.898 563.991L334.857 640.09C334.866 652.151 334.048 664.788 335.04 676.758Q335.365 683.353 334.967 689.945C333.856 696.047 334.559 703.167 334.679 709.372C334.902 720.933 335.42 734.778 334.581 746.172Z"/>
	<path fill="#FACB4E" d="M467.435 578.182L467.045 439.121C478.22 439.595 489.489 439.309 500.679 439.307Q528.566 439.391 556.452 439.158L556.513 578.341C545.69 577.831 534.727 578.163 523.891 578.168L467.435 578.182Z"/>
	<path fill="#FB771A" d="M583.413 600.015L583.514 439.14Q629.795 439.544 676.075 438.988L676.307 599.355L676.072 599.734L675.841 599.465L675.476 600.087C665.274 600.727 654.6 600.049 644.357 600.017L583.413 600.015Z"/>
	<path fill="#0A8B5B" d="M348.457 600.025L348.293 439.481L439.353 439.456C438.613 458.687 439.466 478.185 439.555 497.45Q439.87 548.672 439.51 599.894C432.502 601.038 419.617 600.074 412.053 600.059L348.457 600.025Z"/>
	<path fill="#0A8B5B" d="M335.04 676.758C345.527 672.079 355.491 665.906 365.772 660.736Q415.959 635.098 465.777 608.749L495.718 592.921C500.173 590.533 505.537 586.626 510.369 585.288C511.446 584.99 512.922 585.713 513.92 586.1C519.669 588.329 524.846 592.121 530.343 594.931L580.666 621.166L652.832 658.838C664.832 665.089 677.181 670.962 688.911 677.698C688.884 681.686 688.755 685.703 688.95 689.686C684.233 688.138 679.593 685.355 675.164 683.105C662.757 676.801 650.682 669.9 638.3 663.564L561.355 623.944C544.91 615.425 527.879 607.1 512.044 597.515C491.886 607.153 472.305 618.231 452.545 628.66L369.901 671.598C364.098 674.614 339.003 688.96 334.967 689.945Q335.365 683.353 335.04 676.758Z"/>
	<path fill="#F8EED3" d="M512.044 597.515C527.879 607.1 544.91 615.425 561.355 623.944L638.3 663.564C650.682 669.9 662.757 676.801 675.164 683.105C679.593 685.355 684.233 688.138 688.95 689.686C689.259 707.701 689.516 725.901 688.963 743.91C691.351 743.893 693.787 743.762 696.157 744.07C693.86 744.265 691.584 744.447 689.277 744.473C682.871 753.727 676.472 762.828 669.044 771.303C637.598 807.179 594.517 832.955 547.458 841.585Q545.031 842.025 542.594 842.405Q540.157 842.785 537.712 843.105Q535.266 843.426 532.814 843.686Q530.361 843.946 527.903 844.146Q525.444 844.347 522.982 844.487Q520.52 844.626 518.054 844.706Q515.589 844.786 513.123 844.805Q510.657 844.824 508.191 844.782Q505.725 844.741 503.26 844.639Q500.796 844.538 498.335 844.375Q495.874 844.213 493.417 843.991Q490.961 843.769 488.511 843.486Q486.061 843.204 483.618 842.861Q481.176 842.519 478.742 842.117Q476.309 841.715 473.886 841.253Q471.463 840.792 469.053 840.271Q466.642 839.75 464.244 839.17Q461.847 838.591 459.465 837.952Q457.082 837.314 454.716 836.617Q452.35 835.921 450.002 835.167Q447.654 834.413 445.325 833.601Q442.996 832.79 440.687 831.921Q438.379 831.053 436.092 830.128Q433.806 829.204 431.542 828.223Q429.279 827.243 427.041 826.207Q424.802 825.172 422.59 824.082Q420.377 822.992 418.192 821.848Q416.007 820.704 413.851 819.507Q411.694 818.31 409.568 817.06Q407.442 815.81 405.346 814.509Q403.251 813.208 401.189 811.856Q399.126 810.503 397.097 809.101C379.546 796.952 364.477 782.17 350.471 766.123C346.76 761.87 337.672 748.239 334.581 746.172C335.42 734.778 334.902 720.933 334.679 709.372C334.559 703.167 333.856 696.047 334.967 689.945C339.003 688.96 364.098 674.614 369.901 671.598L452.545 628.66C472.305 618.231 491.886 607.153 512.044 597.515ZM511.488 645.43C496.356 652.84 481.845 661.735 466.544 668.756C466.715 694.324 467.477 720.072 466.813 745.626L511.895 745.572L556.479 745.538L556.33 695.714C556.322 686.519 556.582 677.236 556.271 668.051C548.264 663.428 539.846 659.393 531.625 655.157C525.28 651.888 518.256 647.617 511.488 645.43ZM583.507 685.561L583.521 745.708L643.046 745.674C651.319 745.682 662.772 746.684 670.711 745.214C672.305 744.918 673.531 743.976 674.807 743.031C676.205 740.971 677.386 738.928 676.982 736.338C676.664 734.295 675.478 732.812 673.821 731.671C667.778 727.512 660.197 724.5 653.618 721.236L616.333 702.692C605.359 697.242 594.787 690.277 583.507 685.561ZM438.829 686.962C425.709 692.865 413.264 700.571 400.468 707.16C385.375 714.932 369.251 721.818 354.87 730.841C353.132 731.932 351.415 732.95 350.683 734.974C349.924 737.074 350.447 739.387 351.472 741.302C351.949 742.192 352.594 742.915 353.254 743.671C354.797 744.504 356.186 745.076 357.945 745.256C366.151 746.094 374.94 745.473 383.191 745.439C401.805 745.363 420.476 744.971 439.085 745.484C439.006 737.634 439.847 690.351 438.829 686.962Z"/>
	<path fill="#FACB4E" d="M466.544 668.756C481.845 661.735 496.356 652.84 511.488 645.43C518.256 647.617 525.28 651.888 531.625 655.157C539.846 659.393 548.264 663.428 556.271 668.051C556.582 677.236 556.322 686.519 556.33 695.714L556.479 745.538L511.895 745.572L466.813 745.626C467.477 720.072 466.715 694.324 466.544 668.756Z"/>
	<path fill="#FB771A" d="M583.521 745.708L583.507 685.561C594.787 690.277 605.359 697.242 616.333 702.692L653.618 721.236C660.197 724.5 667.778 727.512 673.821 731.671C675.478 732.812 676.664 734.295 676.982 736.338C677.386 738.928 676.205 740.971 674.807 743.031C673.531 743.976 672.305 744.918 670.711 745.214C662.772 746.684 651.319 745.682 643.046 745.674L583.521 745.708Z"/>
	<path fill="#0A8B5B" d="M353.254 743.671C352.594 742.915 351.949 742.192 351.472 741.302C350.447 739.387 349.924 737.074 350.683 734.974C351.415 732.95 353.132 731.932 354.87 730.841C369.251 721.818 385.375 714.932 400.468 707.16C413.264 700.571 425.709 692.865 438.829 686.962C439.847 690.351 439.006 737.634 439.085 745.484C420.476 744.971 401.805 745.363 383.191 745.439C374.94 745.473 366.151 746.094 357.945 745.256C356.186 745.076 354.797 744.504 353.254 743.671Z"/>
</svg>
